<?xml version="1.0" encoding="UTF-8"?>
<svg version="1.1" xmlns="http://www.w3.org/2000/svg" width="600" height="600">
<path d="M0 0 C1.65298096 0.32991943 1.65298096 0.32991943 3.33935547 0.66650391 C6.89998641 1.39404957 10.45101677 2.15518269 14 2.9375 C15.0938501 3.17807129 16.1877002 3.41864258 17.31469727 3.66650391 C25.04795219 5.48872503 31.77819677 7.65783249 37.015625 14.04296875 C38 16 38 16 38.234375 18.73828125 C38.5598078 22.50468731 39.04280785 24.72954038 41 28 C46.42036628 31.67102708 52.97992191 33.56750418 59.07177734 35.84179688 C84.48210718 45.89237256 107.42801308 63.1917113 127 82 C127.59458008 82.56734863 128.18916016 83.13469727 128.80175781 83.71923828 C137.15302044 91.72809483 144.80275819 99.95003698 151.69384766 109.24951172 C153.00663852 111.00889686 154.34951419 112.74148179 155.69921875 114.47265625 C163.5576419 124.68664104 169.93240577 135.64682845 176 147 C176.40992188 147.76231934 176.81984375 148.52463867 177.2421875 149.31005859 C188.57450045 170.74353136 196.04554043 195.13815234 200 219 C200.16081055 219.94053223 200.32162109 220.88106445 200.48730469 221.85009766 C204.29841936 245.34149416 203.29051123 269.28683486 203 293 C203.72880371 293.18103271 204.45760742 293.36206543 205.20849609 293.54858398 C210.39510716 294.88938454 215.06344791 296.15766797 219.625 299.0625 C220.85089844 299.82240234 220.85089844 299.82240234 222.1015625 300.59765625 C224 302 224 302 225 304 C225.32999578 308.77919974 225.39901211 313.55825784 225.45996094 318.34765625 C225.48653939 319.94236329 225.52743496 321.53689933 225.58300781 323.13085938 C226.03605641 336.28564395 226.03605641 336.28564395 223.59301758 340.328125 C221.79885368 341.9235891 220.16279009 342.97215059 218 344 C217.13761719 344.4846875 216.27523437 344.969375 215.38671875 345.46875 C138.96202642 374.66718528 41.47223996 369.39575178 -38.79325956 369.25713813 C-43.6702252 369.24959169 -48.54710959 369.2523271 -53.42407227 369.26074219 C-217.78543054 369.53692736 -217.78543054 369.53692736 -291.5625 349.9375 C-292.39458984 349.71650635 -293.22667969 349.4955127 -294.08398438 349.26782227 C-301.45710038 347.14736419 -310.24496069 344.31919698 -315 338 C-315.41043031 335.31031961 -315.58525355 333.0356646 -315.56640625 330.34765625 C-315.57570412 329.2419352 -315.57570412 329.2419352 -315.58518982 328.11387634 C-315.59227893 326.5581087 -315.58912966 325.00226505 -315.57641602 323.4465332 C-315.56256101 321.07295225 -315.59661052 318.70332542 -315.63476562 316.33007812 C-315.63571703 314.81510321 -315.63385682 313.30012338 -315.62890625 311.78515625 C-315.64216446 311.0798024 -315.65542267 310.37444855 -315.66908264 309.64772034 C-315.59652852 305.78404562 -315.11495209 304.14101854 -312.64428711 301.11010742 C-309.840447 298.87267874 -307.33285275 297.55933501 -304 296.25 C-302.4840625 295.63898438 -302.4840625 295.63898438 -300.9375 295.015625 C-298.28215617 294.097554 -295.75366698 293.51892459 -293 293 C-293.01047363 291.71649658 -293.02094727 290.43299316 -293.03173828 289.1105957 C-293.06858694 284.24050815 -293.09113035 279.3704322 -293.10986328 274.50024414 C-293.119776 272.4126578 -293.13331012 270.32508477 -293.15087891 268.23754883 C-293.30234446 249.74538667 -292.48385654 231.49669621 -288.875 213.3125 C-288.66254639 212.23637451 -288.45009277 211.16024902 -288.23120117 210.05151367 C-281.10185667 175.59509912 -266.7769834 143.36709911 -246 115 C-245.58395508 114.42701172 -245.16791016 113.85402344 -244.73925781 113.26367188 C-238.41700317 104.6100545 -231.43121115 96.71225079 -224 89 C-223.12335693 88.08250977 -223.12335693 88.08250977 -222.22900391 87.14648438 C-213.70803379 78.26489827 -204.90071053 70.30551573 -195 63 C-193.89314098 62.16287701 -192.78636963 61.32563808 -191.6796875 60.48828125 C-178.6692973 50.78465105 -164.52486442 43.05718455 -149.9375 36 C-148.5289978 35.31466187 -148.5289978 35.31466187 -147.09204102 34.61547852 C-141.18796374 31.82029885 -135.31200501 29.68206173 -129 28 C-128.97502441 27.39124023 -128.95004883 26.78248047 -128.92431641 26.15527344 C-128.61497576 20.19269872 -127.18921667 15.37599704 -123 11 C-116.9433066 6.15273012 -110.41322981 4.47412813 -102.9375 2.875 C-101.20197876 2.49770752 -101.20197876 2.49770752 -99.43139648 2.11279297 C-95.9595001 1.37888844 -92.48251487 0.68156183 -89 0 C-87.63343262 -0.27553711 -87.63343262 -0.27553711 -86.23925781 -0.55664062 C-59.05344558 -5.79551884 -27.10798382 -5.50010126 0 0 Z " fill="#FEEF4C" transform="translate(345,123)"/>
<path d="M0 0 C-1.31349887 4.74404887 -3.40964645 8.68380443 -5.83227539 12.9230957 C-34.75486714 63.57768074 -48.80584042 123.27439933 -54 181 C-54.09764648 182.08361816 -54.19529297 183.16723633 -54.29589844 184.28369141 C-56.1830986 206.15170268 -56.58981352 228.06502772 -57 250 C-58.02730225 250.08975098 -59.05460449 250.17950195 -60.11303711 250.27197266 C-92.63912315 253.14545361 -125.60369057 256.09198704 -157.3359375 264.1171875 C-161 265 -161 265 -164 265 C-164.05032042 258.83342613 -164.08614325 252.66697781 -164.10986328 246.50024414 C-164.119776 244.4126578 -164.13331012 242.32508477 -164.15087891 240.23754883 C-164.30234446 221.74538667 -163.48385654 203.49669621 -159.875 185.3125 C-159.66254639 184.23637451 -159.45009277 183.16024902 -159.23120117 182.05151367 C-152.10185667 147.59509912 -137.7769834 115.36709911 -117 87 C-116.58395508 86.42701172 -116.16791016 85.85402344 -115.73925781 85.26367188 C-109.41700317 76.6100545 -102.43121115 68.71225079 -95 61 C-94.41557129 60.38833984 -93.83114258 59.77667969 -93.22900391 59.14648438 C-84.70803379 50.26489827 -75.90071053 42.30551573 -66 35 C-64.89314098 34.16287701 -63.78636963 33.32563808 -62.6796875 32.48828125 C-19.12019407 0 -19.12019407 0 0 0 Z " fill="#F5DA0C" transform="translate(216,151)"/>
<path d="M0 0 C16.3440745 13.61935529 36.75574691 22.33904327 58.20140076 22.39044189 C58.89846368 22.39341302 59.59552661 22.39638414 60.31371266 22.3994453 C62.63159889 22.40806344 64.94943305 22.40963469 67.26733398 22.41113281 C68.93696705 22.41576604 70.60659906 22.42079138 72.27622986 22.42617798 C76.80153833 22.43925943 81.32683199 22.44573916 85.8521564 22.45018864 C88.68608277 22.45312758 91.52000516 22.45723402 94.35392952 22.46169281 C103.23970089 22.47535949 112.12546309 22.48502896 121.01124424 22.4888947 C131.23221395 22.4933669 141.45304936 22.51087928 151.67397827 22.5398953 C159.59702428 22.56159847 167.52003276 22.57160364 175.44310814 22.57293582 C180.16415048 22.57397812 184.88506644 22.57976177 189.60607719 22.59775543 C194.05571199 22.61438508 198.50512745 22.61632039 202.95478249 22.60761642 C204.57514412 22.60685382 206.19551829 22.61108434 207.8158493 22.62107468 C233.14676128 22.7679148 257.10537799 16.15711939 276.5234375 -0.6796875 C290.29483207 -12.49010679 303.85338971 -14.90537866 321.57666016 -13.54785156 C339.22713167 -11.87107259 356.60024465 -8.35791377 373.9375 -4.75 C374.8150293 -4.57355957 375.69255859 -4.39711914 376.59667969 -4.21533203 C387.51945629 -1.99554195 397.0572192 2.21203504 406.9375 7.25 C406.9375 10.25 406.9375 10.25 405.71484375 11.6796875 C351.14387981 54.5485976 214.99624162 40.61642382 144.14424044 40.50713813 C139.2672748 40.49959169 134.39039041 40.5023271 129.51342773 40.51074219 C-34.84793054 40.78692736 -34.84793054 40.78692736 -108.625 21.1875 C-109.87313477 20.85600952 -109.87313477 20.85600952 -111.14648438 20.51782227 C-118.55594717 18.3869111 -126.66915918 15.91475198 -131.0625 9.25 C-121.75082253 1.44838113 -111.33966856 -1.88671929 -99.625 -4.4375 C-98.30875093 -4.73480405 -96.99258978 -5.03249764 -95.67651367 -5.33056641 C-86.14371571 -7.45408463 -76.58611995 -9.05775961 -66.89453125 -10.2421875 C-63.15121564 -10.61550632 -63.15121564 -10.61550632 -60.0625 -11.75 C-37.20487583 -15.16951182 -18.41835317 -15.49127288 0 0 Z " fill="#F5DA0C" transform="translate(162.0625,451.75)"/>
<path d="M0 0 C3.49567951 1.1652265 3.72462934 1.73442724 5.49609375 4.8046875 C5.96563477 5.60535645 6.43517578 6.40602539 6.91894531 7.23095703 C7.42006836 8.10349121 7.92119141 8.97602539 8.4375 9.875 C9.52283467 11.72507716 10.6101207 13.57401076 11.69921875 15.421875 C12.2514209 16.36095703 12.80362305 17.30003906 13.37255859 18.26757812 C15.75585388 22.26905439 18.24438126 26.19936001 20.75 30.125 C25.50826813 37.60306706 30.17672825 45.132909 34.8125 52.6875 C42.47248054 65.16878421 50.21875205 77.59398425 58 90 C55.73786526 92.47490306 53.44745997 94.02495856 50.51953125 95.64453125 C49.61380371 96.15000488 48.70807617 96.65547852 47.77490234 97.17626953 C46.79730957 97.71622559 45.8197168 98.25618164 44.8125 98.8125 C42.73746303 99.97119216 40.66327243 101.13140107 38.58984375 102.29296875 C37.51202637 102.8967334 36.43420898 103.50049805 35.32373047 104.12255859 C29.80993613 107.23707883 24.34125368 110.42797937 18.875 113.625 C17.86284424 114.21643799 16.85068848 114.80787598 15.80786133 115.41723633 C10.58687328 118.42406087 10.58687328 118.42406087 5.56689453 121.74365234 C2.20717053 123.38804456 0.55950646 123.01260821 -3 122 C-5.47167969 120.83935547 -5.47167969 120.83935547 -7.921875 119.3671875 C-8.85298096 118.81522705 -9.78408691 118.2632666 -10.7434082 117.69458008 C-11.7355835 117.09411865 -12.72775879 116.49365723 -13.75 115.875 C-15.88351163 114.60445572 -18.01764988 113.3349632 -20.15234375 112.06640625 C-21.26464355 111.4027002 -22.37694336 110.73899414 -23.52294922 110.05517578 C-27.07795602 107.94458329 -30.66233392 105.88743256 -34.25390625 103.83984375 C-34.84668365 103.50128357 -35.43946106 103.16272339 -36.05020142 102.81390381 C-38.93364754 101.16753614 -41.81928487 99.52529276 -44.70800781 97.88818359 C-45.74924805 97.29215332 -46.79048828 96.69612305 -47.86328125 96.08203125 C-48.78407471 95.55843018 -49.70486816 95.0348291 -50.65356445 94.49536133 C-52.75741162 93.15459929 -54.33707605 91.84405835 -56 90 C-55.62939453 89.40912598 -55.25878906 88.81825195 -54.87695312 88.20947266 C-47.53733934 76.50157589 -40.23031048 64.77573838 -33 53 C-25.95478491 41.52768925 -18.83722327 30.10205425 -11.68798828 18.69433594 C-9.14275609 14.63168299 -6.6026173 10.56585212 -4.0625 6.5 C-3.2617464 5.21873272 -2.46096857 3.93748058 -1.66015625 2.65625 C-1.11230469 1.7796875 -0.56445312 0.903125 0 0 Z " fill="#242423" transform="translate(299,206)"/>
<path d="M0 0 C12.50354449 11.57178997 21.09435078 28.13760811 29 43 C29.40702148 43.75796875 29.81404297 44.5159375 30.23339844 45.296875 C41.57018126 66.73508292 49.0444592 91.13162801 53 115 C53.24121582 116.41079834 53.24121582 116.41079834 53.48730469 117.85009766 C57.29841936 141.34149416 56.29051123 165.28683486 56 189 C47.48717049 187.98558426 47.48717049 187.98558426 43.5625 187.09765625 C42.81226563 186.92943359 42.06203125 186.76121094 41.2890625 186.58789062 C40.53367187 186.41451172 39.77828125 186.24113281 39 186.0625 C38.24460937 185.89298828 37.48921875 185.72347656 36.7109375 185.54882812 C31.78842275 184.43661045 26.89441102 183.22970151 22 182 C21.99120064 180.87844009 21.99120064 180.87844009 21.98222351 179.73422241 C21.9232396 172.53246047 21.85061343 165.33100418 21.76428509 158.12952232 C21.72038765 154.43109863 21.68098076 150.73276519 21.65356445 147.03417969 C21.4530324 120.78598522 19.76525806 94.90711164 15.25 69 C15.06257736 67.89789688 15.06257736 67.89789688 14.87136841 66.77352905 C11.54227513 47.2553836 7.44533815 27.74532742 1.42163086 8.86645508 C0.41008412 5.67347831 0 3.41621652 0 0 Z " fill="#F5DA0D" transform="translate(492,227)"/>
<path d="M0 0 C0 39.93 0 79.86 0 121 C-3.62806134 119.54877547 -6.74228784 118.12455815 -10.11328125 116.234375 C-11.10312012 115.68048096 -12.09295898 115.12658691 -13.11279297 114.5559082 C-14.69664795 113.66198364 -14.69664795 113.66198364 -16.3125 112.75 C-17.95049561 111.82803833 -17.95049561 111.82803833 -19.62158203 110.88745117 C-27.56334639 106.4041971 -35.48186064 101.88084541 -43.375 97.3125 C-44.39634033 96.72500977 -45.41768066 96.13751953 -46.4699707 95.53222656 C-47.88862427 94.70609863 -47.88862427 94.70609863 -49.3359375 93.86328125 C-50.58189697 93.14072144 -50.58189697 93.14072144 -51.85302734 92.40356445 C-53.85453295 91.0950978 -55.39133378 89.75848342 -57 88 C-56.62939453 87.40912598 -56.25878906 86.81825195 -55.87695312 86.20947266 C-48.53734027 74.50157737 -41.23020776 62.7758002 -34 51 C-28.08277241 41.36281444 -22.12008799 31.75547073 -16.1105957 22.17553711 C-13.50137702 18.01409201 -10.89731516 13.85145938 -8.35546875 9.6484375 C-7.97970703 9.02815674 -7.60394531 8.40787598 -7.21679688 7.76879883 C-6.27921564 6.21453999 -5.34823062 4.65630693 -4.41796875 3.09765625 C-2.32402235 0 -2.32402235 0 0 0 Z " fill="#161A1F" transform="translate(300,208)"/>
<path d="M0 0 C6.77518264 3.47132953 13.21277015 7.34559134 19.625 11.4375 C22.13376039 13.02675766 24.6439429 14.61374052 27.15478516 16.19970703 C29.17513691 17.47807273 31.19276456 18.76074818 33.20849609 20.04638672 C36.56377902 22.1769646 39.93609738 24.27808921 43.3125 26.375 C44.38000488 27.06005615 45.44750977 27.7451123 46.54736328 28.45092773 C47.55911621 29.07298096 48.57086914 29.69503418 49.61328125 30.3359375 C50.50829346 30.89845215 51.40330566 31.4609668 52.32543945 32.04052734 C55.9325974 33.33456027 57.56057963 32.55104933 61 31 C63.20659424 29.86372759 63.20659424 29.86372759 65.265625 28.5234375 C66.06105713 28.02497314 66.85648926 27.52650879 67.67602539 27.01293945 C68.52543701 26.47241943 69.37484863 25.93189941 70.25 25.375 C72.10774976 24.20912033 73.96583952 23.0437823 75.82421875 21.87890625 C76.81341309 21.2564502 77.80260742 20.63399414 78.82177734 19.99267578 C83.97273403 16.7631391 89.14684206 13.57140478 94.32385254 10.3838501 C96.03963672 9.3265883 97.75378403 8.26671121 99.46777344 7.20654297 C100.52125977 6.5570166 101.57474609 5.90749023 102.66015625 5.23828125 C103.59480713 4.66118408 104.52945801 4.08408691 105.49243164 3.48950195 C107.6268478 2.22165335 109.7621167 1.07123293 112 0 C110.64483009 2.84082004 109.12215438 5.42139 107.34765625 8.01953125 C106.56249634 9.17026123 106.56249634 9.17026123 105.76147461 10.34423828 C105.20081299 11.15876465 104.64015137 11.97329102 104.0625 12.8125 C103.48056885 13.66054199 102.8986377 14.50858398 102.29907227 15.38232422 C98.32787628 21.1423716 94.25765908 26.81747781 90.09375 32.43920898 C85.13095463 39.14561652 80.34138165 45.97159894 75.546875 52.79882812 C72.89096565 56.57813347 70.22642746 60.3513444 67.5625 64.125 C67.0785376 64.81126465 66.5945752 65.4975293 66.09594727 66.20458984 C63.07903037 70.48060937 60.0453821 74.74420287 57 79 C53.58981325 77.86327108 53.22708792 77.26867984 51.3203125 74.37890625 C50.81040771 73.61755371 50.30050293 72.85620117 49.77514648 72.07177734 C49.23059814 71.24371582 48.6860498 70.4156543 48.125 69.5625 C46.95382928 67.81505987 45.78059969 66.06899814 44.60546875 64.32421875 C44.00653809 63.43395996 43.40760742 62.54370117 42.79052734 61.62646484 C40.08214441 57.65362825 37.2683764 53.76108739 34.4375 49.875 C30.23168376 44.08940123 26.05672169 38.28513714 21.9375 32.4375 C21.4520874 31.74865723 20.9666748 31.05981445 20.46655273 30.35009766 C18.43409313 27.46355283 16.40395085 24.57539017 14.37548828 21.68603516 C13.28032305 20.12627398 12.18454602 18.56694219 11.08813477 17.00805664 C10.05984826 15.54600869 9.03290431 14.08301518 8.00756836 12.61889648 C5.96223707 9.71177822 3.9114946 6.89202341 1.65625 4.140625 C0 2 0 2 0 0 Z " fill="#262623" transform="translate(244,318)"/>
<path d="M0 0 C7.61672039 3.90249944 14.80120541 8.34975634 22.00268555 12.95947266 C26.87425011 16.06367227 31.78490765 19.09074815 36.75 22.04296875 C37.3208432 22.38273239 37.8916864 22.72249603 38.47982788 23.07255554 C41.31111428 24.7557124 44.14659275 26.43132684 46.98681641 28.09936523 C48.01468262 28.70852783 49.04254883 29.31769043 50.1015625 29.9453125 C51.02275879 30.48687988 51.94395508 31.02844727 52.89306641 31.58642578 C55 33 55 33 56 35 C56.08918777 36.38909304 56.11759541 37.78236907 56.11352539 39.17431641 C56.11344986 40.03505768 56.11337433 40.89579895 56.11329651 41.78262329 C56.10813522 42.71287323 56.10297394 43.64312317 56.09765625 44.6015625 C56.0962413 45.55316254 56.09482635 46.50476257 56.09336853 47.48519897 C56.08776012 50.53183097 56.07520619 53.57839013 56.0625 56.625 C56.05748608 58.68749894 56.05292299 60.74999903 56.04882812 62.8125 C56.03778796 67.87502817 56.02051767 72.93750173 56 78 C55.34 78 54.68 78 54 78 C52.78588867 76.54150391 52.78588867 76.54150391 51.41796875 74.4765625 C50.90484131 73.7119873 50.39171387 72.94741211 49.86303711 72.15966797 C49.31010986 71.32322754 48.75718262 70.48678711 48.1875 69.625 C47.00718624 67.86846099 45.82484312 66.11328415 44.640625 64.359375 C43.73280273 63.01456055 43.73280273 63.01456055 42.80664062 61.64257812 C40.08887938 57.66730141 37.27201219 53.76751833 34.4375 49.875 C30.2317958 44.08931844 26.056723 38.28513899 21.9375 32.4375 C21.4520874 31.74865723 20.9666748 31.05981445 20.46655273 30.35009766 C18.43409313 27.46355283 16.40395085 24.57539017 14.37548828 21.68603516 C13.28032305 20.12627398 12.18454602 18.56694219 11.08813477 17.00805664 C10.05984826 15.54600869 9.03290431 14.08301518 8.00756836 12.61889648 C5.96223707 9.71177822 3.9114946 6.89202341 1.65625 4.140625 C0 2 0 2 0 0 Z " fill="#181C1F" transform="translate(244,318)"/>
</svg>
