<?xml version="1.0" encoding="UTF-8"?>
<svg xmlns="http://www.w3.org/2000/svg" xmlns:xlink="http://www.w3.org/1999/xlink" width="30px" height="65px" viewBox="0 0 30 64" version="1.1">
<g id="surface1">
<path style=" stroke:none;fill-rule:nonzero;fill:rgb(0%,40.784314%,29.019609%);fill-opacity:1;" d="M 20.753906 7.132812 C 18.03125 3.945312 15.691406 0.710938 15.214844 0.0390625 C 15.164062 -0.0117188 15.085938 -0.0117188 15.039062 0.0390625 C 14.558594 0.710938 12.21875 3.945312 9.5 7.132812 C -13.839844 36.539062 13.175781 56.382812 13.175781 56.382812 L 13.402344 56.53125 C 13.601562 59.59375 14.105469 64 14.105469 64 L 16.121094 64 C 16.121094 64 16.625 59.617188 16.824219 56.53125 L 17.050781 56.355469 C 17.078125 56.355469 44.089844 36.539062 20.753906 7.132812 Z M 15.113281 55.933594 C 15.113281 55.933594 13.90625 54.914062 13.578125 54.390625 L 13.578125 54.339844 L 15.039062 22.320312 C 15.039062 22.222656 15.1875 22.222656 15.1875 22.320312 L 16.648438 54.339844 L 16.648438 54.390625 C 16.320312 54.914062 15.113281 55.933594 15.113281 55.933594 Z M 15.113281 55.933594 "/>
</g>
</svg>
